<?xml version="1.0" encoding="UTF-8"?>
<svg width="24px" height="24px" viewBox="0 0 24 24" version="1.1" xmlns="http://www.w3.org/2000/svg" xmlns:xlink="http://www.w3.org/1999/xlink">
    <!-- Generator: Sketch 49 (51002) - http://www.bohemiancoding.com/sketch -->
    <title>Images</title>
    <desc>Created with Sketch.</desc>
    <defs></defs>
    <g id="Images" stroke="none" stroke-width="1" fill="none" fill-rule="evenodd">
        <g id="ic_collections_24px" transform="translate(3.000000, 3.000000)">
            <polygon id="Shape" points="0 0 18 0 18 18 0 18"></polygon>
            <path d="M17,12.2 L17,2.6 C17,1.72 16.28,1 15.4,1 L5.8,1 C4.92,1 4.2,1.72 4.2,2.6 L4.2,12.2 C4.2,13.08 4.92,13.8 5.8,13.8 L15.4,13.8 C16.28,13.8 17,13.08 17,12.2 Z M8.2,9 L9.824,11.168 L12.2,8.2 L15.4,12.2 L5.8,12.2 L8.2,9 Z M1,4.2 L1,15.4 C1,16.28 1.72,17 2.6,17 L13.8,17 L13.8,15.4 L2.6,15.4 L2.6,4.2 L1,4.2 Z" id="Shape" fill="#FFFFFF" fill-rule="nonzero"></path>
        </g>
    </g>
</svg>
